<svg width="33" height="35" viewBox="0 0 33 35" fill="none" xmlns="http://www.w3.org/2000/svg">
<g clip-path="url(#clip0_19_422)">
<path d="M2.91228 29.7565C1.35278 29.7599 0.0626443 28.4221 0.0589618 26.7396L0.00734939 3.15934C0.00372444 1.5032 1.26318 0.133467 2.84743 0.13L23.7397 0.0842707C25.2992 0.0808573 26.5893 1.41873 26.593 3.10115L26.6174 14.2472L26.5184 14.2212C26.0972 14.0907 25.7011 14.0389 25.2555 14.0399L25.2307 14.04L25.2058 13.9612L25.1316 13.9613L25.1078 3.1044C25.1061 2.34205 24.461 1.65998 23.7432 1.66155L2.85088 1.70728C2.13302 1.70885 1.49091 2.39374 1.49258 3.15609L1.5442 26.7364C1.54586 27.4987 2.19096 28.1808 2.90882 28.1792L13.8748 28.1552L13.8996 28.1815C14.1728 28.5752 14.0249 28.8647 13.9263 29.0752C13.8277 29.2594 13.7785 29.391 13.9522 29.5746L14.101 29.732L2.91228 29.7565Z" fill="white"/>
<path d="M4.4691 5.90978C4.19681 5.91037 3.97322 5.54283 3.97224 5.09593C3.97126 4.64904 4.19324 4.28052 4.46554 4.27992L12.8819 4.2615C13.1542 4.2609 13.3777 4.62845 13.3787 5.07534C13.3797 5.52224 13.1577 5.89076 12.8854 5.89135L4.4691 5.90978Z" fill="white"/>
<path d="M12.8821 4.34036L4.46578 4.35878C4.243 4.35927 4.04566 4.67516 4.04658 5.09576C4.0475 5.51637 4.24622 5.83139 4.469 5.83091L12.8853 5.81248C13.1081 5.812 13.3055 5.49611 13.3045 5.0755C13.3036 4.65489 13.1296 4.33982 12.8821 4.34036ZM4.37937 10.1161C4.15658 10.1165 3.98256 9.77518 3.98152 9.302C3.98048 8.82882 4.15301 8.48669 4.3758 8.4862L10.4157 8.47298C10.6385 8.4725 10.8126 8.81386 10.8136 9.28704C10.8146 9.76023 10.6421 10.1023 10.4193 10.1028L4.37937 10.1161Z" fill="white"/>
<path d="M10.4159 8.55187L4.37596 8.56509C4.20268 8.56547 4.0796 8.8812 4.08052 9.3018C4.08144 9.72241 4.2059 10.0376 4.37918 10.0372L10.4191 10.024C10.5924 10.0236 10.7155 9.70789 10.7146 9.28728C10.7136 8.86668 10.5644 8.55155 10.4159 8.55187ZM22.9475 33.945C22.0811 33.9469 21.1404 33.8964 19.9272 33.7939C18.1693 33.64 16.5584 32.776 14.9954 31.1759L7.94931 23.8832C6.31187 22.2044 6.23277 19.9963 7.68957 18.3107C8.30692 17.6259 9.2714 17.2032 10.3111 17.2009C11.3507 17.1986 12.2923 17.6172 12.888 18.3519C12.9128 18.3781 12.9624 18.4306 13.0616 18.483C13.0864 18.5092 13.1359 18.5354 13.1608 18.5616L13.153 15.039L13.1492 13.304C13.1463 11.9633 13.1433 10.5964 13.1651 9.25563C13.1855 7.25769 14.6427 5.72979 16.5735 5.72557L16.5982 5.72551C18.4548 5.72145 19.8689 7.1642 19.9722 9.13558C19.998 9.58242 19.999 10.0556 19.9753 10.5288L19.9766 11.1335L20.3479 11.1327C21.6351 11.1298 22.6263 11.6008 23.3464 12.5982C23.3712 12.6507 23.5199 12.703 23.7179 12.7026C23.7922 12.7024 23.8664 12.7022 23.9159 12.6758C24.1386 12.6491 24.3613 12.6223 24.5594 12.6219C25.5495 12.6197 26.4168 13.0384 27.1613 13.9043C27.2854 14.0354 27.5579 14.14 27.8055 14.1395L27.9045 14.1392C28.0777 14.1126 28.2757 14.0859 28.4489 14.0855C30.3055 14.0814 31.7938 15.4714 31.8225 17.2852C31.9041 20.6236 31.9608 23.9095 31.6213 27.17C31.2091 31.1141 29.2334 33.2215 25.373 33.7557C24.6554 33.8887 23.8386 33.9431 22.9475 33.945ZM10.1906 18.6996C9.67075 18.7007 9.17613 18.9121 8.80563 19.2809C8.36109 19.7551 8.11476 20.3077 8.11608 20.9123C8.11747 21.5432 8.39114 22.1735 8.88737 22.6982L9.8302 23.6951C11.8895 25.8462 14.0232 28.0497 16.1568 30.227C17.1987 31.2762 18.3884 31.9571 19.701 32.2171C20.7163 32.4252 21.7315 32.5281 22.7216 32.526C23.6128 32.524 24.5037 32.4432 25.3697 32.2573C28.5121 31.6458 29.9443 30.0391 30.2346 26.9364C30.5004 23.9653 30.469 20.916 30.413 17.9718L30.412 17.4986C30.3849 16.4209 29.6654 15.6864 28.6505 15.6886C28.3782 15.6892 28.1308 15.7423 27.8587 15.8481L27.8677 19.949C27.8685 20.317 27.87 21.0268 27.1769 21.0283L27.1522 21.0284C26.9294 21.0289 26.756 20.9767 26.6567 20.8454C26.4582 20.6356 26.4326 20.2413 26.4319 19.9258L26.4315 19.7681C26.4289 18.5589 26.451 17.3233 26.4235 16.0878C26.3964 15.01 25.6768 14.2493 24.6867 14.2514C24.4392 14.252 24.1917 14.3051 23.9691 14.3844L23.9784 18.6431C23.9792 19.0111 23.9056 19.3005 23.7327 19.4849C23.6093 19.6166 23.4362 19.6958 23.2134 19.6963L23.1886 19.6963C22.5202 19.6715 22.5186 18.9355 22.518 18.6726L22.5142 16.9376L22.5094 14.7294C22.5083 14.2299 22.3091 13.7046 21.9369 13.3111C21.5896 12.9438 21.1188 12.7345 20.6485 12.7356C20.4504 12.736 20.2277 12.7628 20.0299 12.8421L20.034 14.7348C20.036 15.6286 20.038 16.575 19.9905 17.4951C19.9663 17.7318 19.7687 17.9162 19.571 18.1007C19.4969 18.1797 19.3981 18.2588 19.324 18.3378L19.2499 18.4169L19.2001 18.2855C19.1504 18.2068 19.076 18.1281 19.0016 18.0757C18.8527 17.892 18.679 17.7083 18.5796 17.4982C18.5049 17.3407 18.5293 17.1566 18.529 16.9989L18.5285 16.7886L18.5235 14.5015C18.5198 12.8191 18.516 11.0841 18.4875 9.37542C18.4848 8.1136 17.7155 7.27407 16.6016 7.25022C15.3886 7.25287 14.5738 8.17474 14.5767 9.51542L14.6038 21.897L14.2824 22.1081L14.2576 22.0555C14.0342 21.7931 13.7861 21.5308 13.5627 21.2684C13.0416 20.6912 12.4957 20.0615 11.9498 19.4844C11.4537 18.986 10.8342 18.6982 10.1906 18.6996Z" fill="white"/>
</g>
<defs>
<clipPath id="clip0_19_422">
<rect width="32.0076" height="33.9912" fill="white" transform="translate(0 0.0700684) rotate(-0.125408)"/>
</clipPath>
</defs>
</svg>
