<svg width="25" height="29" viewBox="0 0 25 29" fill="none" xmlns="http://www.w3.org/2000/svg">
<path d="M8.07291 3.02087C8.07291 2.52037 7.72313 2.11462 7.29166 2.11462C6.8602 2.11462 6.51041 2.52037 6.51041 3.02087V4.92915C5.01111 5.06841 4.02684 5.4102 3.30372 6.24902C2.58059 7.08785 2.28595 8.2296 2.16589 9.96879H22.8341C22.7141 8.2296 22.4194 7.08785 21.6962 6.24902C20.9731 5.4102 19.9889 5.06841 18.4896 4.92915V3.02087C18.4896 2.52037 18.1398 2.11462 17.7083 2.11462C17.2769 2.11462 16.9271 2.52037 16.9271 3.02087V4.84896C16.2341 4.83337 15.4573 4.83337 14.5833 4.83337H10.4167C9.54267 4.83337 8.7659 4.83337 8.07291 4.84896V3.02087Z" fill="#35094D"/>
<path fill-rule="evenodd" clip-rule="evenodd" d="M2.08337 14.5C2.08337 13.4862 2.08337 12.5852 2.09681 11.7812H22.9033C22.9167 12.5852 22.9167 13.4862 22.9167 14.5V16.9167C22.9167 21.4735 22.9167 23.7521 21.6963 25.1677C20.476 26.5833 18.5117 26.5833 14.5834 26.5833H10.4167C6.48833 26.5833 4.52416 26.5833 3.30376 25.1677C2.08337 23.7521 2.08337 21.4735 2.08337 16.9167V14.5ZM17.7084 16.9167C18.2837 16.9167 18.75 16.3757 18.75 15.7083C18.75 15.041 18.2837 14.5 17.7084 14.5C17.1331 14.5 16.6667 15.041 16.6667 15.7083C16.6667 16.3757 17.1331 16.9167 17.7084 16.9167ZM17.7084 21.75C18.2837 21.75 18.75 21.209 18.75 20.5417C18.75 19.8743 18.2837 19.3333 17.7084 19.3333C17.1331 19.3333 16.6667 19.8743 16.6667 20.5417C16.6667 21.209 17.1331 21.75 17.7084 21.75ZM13.5417 15.7083C13.5417 16.3757 13.0754 16.9167 12.5 16.9167C11.9247 16.9167 11.4584 16.3757 11.4584 15.7083C11.4584 15.041 11.9247 14.5 12.5 14.5C13.0754 14.5 13.5417 15.041 13.5417 15.7083ZM13.5417 20.5417C13.5417 21.209 13.0754 21.75 12.5 21.75C11.9247 21.75 11.4584 21.209 11.4584 20.5417C11.4584 19.8743 11.9247 19.3333 12.5 19.3333C13.0754 19.3333 13.5417 19.8743 13.5417 20.5417ZM7.29171 16.9167C7.867 16.9167 8.33337 16.3757 8.33337 15.7083C8.33337 15.041 7.867 14.5 7.29171 14.5C6.71642 14.5 6.25004 15.041 6.25004 15.7083C6.25004 16.3757 6.71642 16.9167 7.29171 16.9167ZM7.29171 21.75C7.867 21.75 8.33337 21.209 8.33337 20.5417C8.33337 19.8743 7.867 19.3333 7.29171 19.3333C6.71642 19.3333 6.25004 19.8743 6.25004 20.5417C6.25004 21.209 6.71642 21.75 7.29171 21.75Z" fill="#35094D"/>
</svg>
