<svg width="17" height="18" viewBox="0 0 17 18" fill="none" xmlns="http://www.w3.org/2000/svg">
<g clip-path="url(#clip0_19_135)">
<path d="M17 0H0V18H17V0Z" fill="white"/>
<path d="M10.642 16.5C11.5297 16.5 12.2913 16.4507 12.9277 16.3009C13.5722 16.1492 14.1309 15.8848 14.5666 15.4234C15.0024 14.962 15.2521 14.3705 15.3953 13.6881C15.5368 13.0143 15.5834 12.2078 15.5834 11.268V9C15.5834 8.17155 14.9491 7.5 14.1667 7.5H8.50004C7.71762 7.5 7.08337 8.17155 7.08337 9V15C7.08337 15.8285 7.71762 16.5 8.50004 16.5H10.642Z" fill="#35094D" fill-opacity="0.4"/>
<path d="M1.41663 11.268C1.41663 12.2078 1.46326 13.0143 1.6047 13.6881C1.74793 14.3705 1.99761 14.962 2.43339 15.4234C2.86917 15.8848 3.42782 16.1492 4.07227 16.3009C4.13399 16.3154 4.19602 16.329 4.2583 16.3417C5.0265 16.4989 5.66663 15.8104 5.66663 14.982V9C5.66663 8.17155 5.03236 7.5 4.24996 7.5H2.83329C2.05089 7.5 1.41663 8.17155 1.41663 9V11.268Z" fill="#35094D" fill-opacity="0.4"/>
<path d="M6.35799 1.5C5.47036 1.5 4.70872 1.54938 4.07231 1.69914C3.42785 1.85079 2.8692 2.11516 2.43342 2.57657C1.99764 3.03799 1.74796 3.6295 1.60473 4.31186C1.59298 4.36789 1.58191 4.42411 1.57152 4.48048C1.41967 5.3045 2.08173 6 2.87464 6H14.1497C14.9321 6 15.5823 5.32222 15.4339 4.50883C15.4218 4.44289 15.409 4.37721 15.3953 4.31186C15.252 3.6295 15.0024 3.03799 14.5665 2.57657C14.1308 2.11516 13.5721 1.85079 12.9277 1.69914C12.2912 1.54938 11.5296 1.5 10.642 1.5H6.35799Z" fill="#35094D" fill-opacity="0.4"/>
</g>
<defs>
<clipPath id="clip0_19_135">
<rect width="17" height="18" fill="white"/>
</clipPath>
</defs>
</svg>
