<svg width="17" height="18" viewBox="0 0 17 18" fill="none" xmlns="http://www.w3.org/2000/svg">
<g clip-path="url(#clip0_7_33)">
<path d="M17 0H0V18H17V0Z" fill="white"/>
<path d="M10.642 16.5C11.5296 16.5 12.2913 16.4507 12.9276 16.3009C13.5722 16.1492 14.1308 15.8848 14.5666 15.4234C15.0024 14.962 15.252 14.3705 15.3953 13.6881C15.5367 13.0143 15.5833 12.2078 15.5833 11.268V9C15.5833 8.17155 14.9491 7.5 14.1667 7.5H8.5C7.71757 7.5 7.08333 8.17155 7.08333 9V15C7.08333 15.8285 7.71757 16.5 8.5 16.5H10.642Z" fill="#35094D"/>
<path d="M1.41667 11.268C1.41667 12.2078 1.4633 13.0143 1.60474 13.6881C1.74797 14.3705 1.99765 14.962 2.43343 15.4234C2.86921 15.8848 3.42786 16.1492 4.07232 16.3009C4.13403 16.3154 4.19606 16.329 4.25835 16.3417C5.02654 16.4989 5.66667 15.8104 5.66667 14.982V9C5.66667 8.17155 5.0324 7.5 4.25 7.5H2.83333C2.05093 7.5 1.41667 8.17155 1.41667 9V11.268Z" fill="#35094D"/>
<path d="M6.35798 1.5C5.47035 1.5 4.70871 1.54938 4.07229 1.69914C3.42784 1.85079 2.86919 2.11516 2.43341 2.57657C1.99763 3.03799 1.74795 3.6295 1.60472 4.31186C1.59296 4.36789 1.5819 4.42411 1.57151 4.48048C1.41966 5.3045 2.08172 6 2.87463 6H14.1497C14.9321 6 15.5823 5.32222 15.4339 4.50883C15.4218 4.44289 15.4089 4.37721 15.3953 4.31186C15.252 3.6295 15.0024 3.03799 14.5665 2.57657C14.1308 2.11516 13.5721 1.85079 12.9276 1.69914C12.2912 1.54938 11.5296 1.5 10.642 1.5H6.35798Z" fill="#35094D"/>
</g>
<defs>
<clipPath id="clip0_7_33">
<rect width="17" height="18" fill="white"/>
</clipPath>
</defs>
</svg>
