<svg width="175" height="169" viewBox="0 0 175 169" fill="none" xmlns="http://www.w3.org/2000/svg">
<path d="M57.5093 28.4735C65.6492 28.4735 72.2503 22.1017 72.2503 14.2379C72.2503 6.37447 65.6492 0 57.5093 0C49.3636 0 42.7632 6.37447 42.7632 14.2379C42.7628 22.1017 49.3636 28.4735 57.5093 28.4735Z" fill="#35094D"/>
<path d="M133.057 43.6047V43.3238C133.057 39.1054 129.519 35.6885 125.151 35.6885H58.741C42.7381 35.6885 28.5275 40.8417 24.9811 57.9744L14.1512 101.636C13.3897 104.925 15.5328 108.182 18.9381 108.917C22.3376 109.65 25.7101 107.58 26.4692 104.295L37.862 75.2038L40.8104 161.777C40.8104 165.767 44.1583 169 48.2868 169C52.4205 169 55.7688 165.767 55.7688 161.777L58.7417 110.149L61.7088 161.777C61.7088 165.767 65.0591 169 69.188 169C73.3193 169 76.67 165.767 76.67 161.777L80.8775 57.2251L126.237 51.1658C130.144 50.6437 133.057 47.4158 133.057 43.6047Z" fill="#35094D"/>
<path d="M122.589 94.5298L142.661 78.2002L133.677 67.902L113.605 84.2316L122.589 94.5298Z" fill="#35094D"/>
<path d="M93.624 105.892L98.1005 161.034C98.511 165.544 102.422 169 107.114 169H147.512C152.198 169 156.112 165.544 156.526 161.034L161.002 105.892H93.624ZM112.338 161.171C110.869 161.255 109.613 160.173 109.524 158.76L106.989 118.401C106.901 116.986 108.019 115.77 109.485 115.68C110.951 115.596 112.211 116.676 112.303 118.091L114.833 158.45C114.922 159.868 113.804 161.082 112.338 161.171ZM129.973 158.602C129.973 160.026 128.782 161.176 127.313 161.176C125.844 161.176 124.653 160.025 124.653 158.602V118.246C124.653 116.828 125.844 115.678 127.313 115.678C128.782 115.678 129.973 116.828 129.973 118.246V158.602ZM145.102 158.76C145.016 160.173 143.756 161.255 142.291 161.171C140.824 161.082 139.707 159.868 139.794 158.45L142.324 118.091C142.413 116.676 143.672 115.597 145.141 115.68C146.607 115.77 147.725 116.986 147.632 118.401L145.102 158.76Z" fill="#35094D"/>
</svg>
