<svg width="39" height="36" viewBox="0 0 39 36" fill="none" xmlns="http://www.w3.org/2000/svg">
<path d="M32.5 6L19.5 18M32.5 6V12.75M32.5 6H25.1875M30.875 18.75V25.2C30.875 26.8802 30.875 27.7203 30.5208 28.362C30.2092 28.9265 29.712 29.3855 29.1005 29.673C28.4053 30 27.4952 30 25.675 30H11.7C9.87984 30 8.96974 30 8.27453 29.673C7.663 29.3855 7.16581 28.9265 6.85423 28.362C6.5 27.7203 6.5 26.8802 6.5 25.2V12.3C6.5 10.6199 6.5 9.77976 6.85423 9.13803C7.16581 8.57354 7.663 8.1146 8.27453 7.82699C8.96974 7.5 9.87982 7.5 11.7 7.5H18.6875" stroke="#35094D" stroke-opacity="0.4" stroke-width="5.33333" stroke-linecap="round" stroke-linejoin="round"/>
</svg>
