<svg width="32" height="27" viewBox="0 0 32 27" fill="none" xmlns="http://www.w3.org/2000/svg">
<path d="M12.3375 13.0634C12.3479 11.0442 13.9514 9.41543 15.9188 9.42556C17.8862 9.43568 19.4728 11.0809 19.4624 13.1001C19.452 15.1193 17.8486 16.7481 15.8812 16.738C13.9137 16.7278 12.3271 15.0826 12.3375 13.0634Z" fill="#31CEA8"/>
<path fill-rule="evenodd" clip-rule="evenodd" d="M0.066898 12.9998C0.0531889 15.6638 0.721416 16.5644 2.05789 18.3657C4.72644 21.9621 9.21189 26.0471 15.8331 26.0811C22.4544 26.1152 26.9815 22.0766 29.687 18.5078C31.0419 16.7205 31.7194 15.8268 31.7331 13.1628C31.7469 10.4988 31.0786 9.59823 29.7421 7.797C27.0735 4.20047 22.5882 0.115552 15.9669 0.0814783C9.34568 0.047405 4.81844 4.08595 2.11301 7.65482C0.758068 9.4422 0.080607 10.3358 0.066898 12.9998ZM15.9314 6.98764C12.6522 6.97076 9.97992 9.68531 9.9626 13.0508C9.94528 16.4162 12.5895 19.1581 15.8687 19.175C19.1479 19.1919 21.8201 16.4774 21.8374 13.1119C21.8548 9.74642 19.2106 7.00451 15.9314 6.98764Z" fill="#31CEA8"/>
</svg>
