<svg width="17" height="15" viewBox="0 0 17 15" fill="none" xmlns="http://www.w3.org/2000/svg">
<path fill-rule="evenodd" clip-rule="evenodd" d="M7.08333 0.625C6.89547 0.625 6.7153 0.69085 6.58246 0.808056L2.33246 4.55806C2.19963 4.67527 2.125 4.83424 2.125 5V12.5C2.125 13.5356 3.0764 14.375 4.25 14.375H5.66667C6.05786 14.375 6.375 14.0952 6.375 13.75C6.375 13.4048 6.05786 13.125 5.66667 13.125H4.25C3.8588 13.125 3.54167 12.8452 3.54167 12.5V5.625H7.08333C7.47455 5.625 7.79167 5.34518 7.79167 5V1.875H12.75C13.1412 1.875 13.4583 2.15482 13.4583 2.5V4.375C13.4583 4.72018 13.7755 5 14.1667 5C14.5579 5 14.875 4.72018 14.875 4.375V2.5C14.875 1.46447 13.9236 0.625 12.75 0.625H7.08333ZM6.375 4.375H4.5434L6.375 2.75888V4.375ZM9.56725 7.07219C9.63411 6.26306 10.3993 5.625 11.3333 5.625H12.0417C12.9757 5.625 13.7408 6.26306 13.8078 7.07219C14.6353 6.71875 15.6442 6.98438 16.1112 7.69813L16.4653 8.23937C16.9324 8.95312 16.6887 9.85681 15.928 10.3125C16.6887 10.7682 16.9324 11.6719 16.4653 12.3856L16.1112 12.9269C15.6442 13.6406 14.6353 13.9062 13.8078 13.5528C13.7408 14.3619 12.9757 15 12.0417 15H11.3333C10.3993 15 9.63411 14.3619 9.56725 13.5528C8.7397 13.9062 7.73082 13.6406 7.26382 12.9269L6.90965 12.3856C6.44263 11.6719 6.68633 10.7682 7.44699 10.3125C6.68633 9.85681 6.44263 8.95312 6.90965 8.23937L7.26382 7.69813C7.73082 6.98438 8.7397 6.71875 9.56725 7.07219ZM11.3333 6.875C11.1377 6.875 10.9792 7.01494 10.9792 7.1875V7.79238C10.9792 8.02963 10.8269 8.24644 10.586 8.35206C10.4924 8.39313 10.402 8.43931 10.3154 8.49025C10.0912 8.622 9.80177 8.63019 9.56852 8.51131L8.97451 8.20875C8.80508 8.12244 8.58847 8.17363 8.49065 8.32313L8.13648 8.86437C8.03873 9.01387 8.09675 9.205 8.26618 9.29125L8.8604 9.594C9.09323 9.71262 9.22987 9.93731 9.21322 10.1741C9.20996 10.2197 9.20833 10.2659 9.20833 10.3125C9.20833 10.3591 9.20996 10.4053 9.21322 10.4509C9.22987 10.6877 9.09323 10.9124 8.8604 11.031L8.26618 11.3338C8.09675 11.42 8.03873 11.6111 8.13648 11.7606L8.49065 12.3019C8.58847 12.4514 8.80508 12.5026 8.97451 12.4162L9.56852 12.1137C9.80177 11.9948 10.0912 12.003 10.3154 12.1347C10.402 12.1857 10.4924 12.2319 10.586 12.2729C10.8269 12.3786 10.9792 12.5954 10.9792 12.8326V13.4375C10.9792 13.6101 11.1377 13.75 11.3333 13.75H12.0417C12.2372 13.75 12.3958 13.6101 12.3958 13.4375V12.8327C12.3958 12.5954 12.5481 12.3786 12.789 12.2729C12.8826 12.2319 12.973 12.1857 13.0597 12.1347C13.2838 12.003 13.5732 11.9948 13.8065 12.1137L14.4005 12.4162C14.5699 12.5026 14.7865 12.4514 14.8843 12.3019L15.2384 11.7606C15.3363 11.6111 15.2783 11.42 15.1088 11.3338L14.5146 11.031C14.2818 10.9124 14.1451 10.6878 14.1618 10.4509C14.165 10.4053 14.1667 10.3591 14.1667 10.3125C14.1667 10.2659 14.165 10.2197 14.1618 10.1741C14.1451 9.93725 14.2818 9.71256 14.5146 9.594L15.1088 9.29125C15.2783 9.205 15.3363 9.01387 15.2384 8.86437L14.8843 8.32313C14.7865 8.17363 14.5699 8.12244 14.4005 8.20875L13.8065 8.51131C13.5732 8.63019 13.2838 8.622 13.0597 8.49025C12.973 8.43931 12.8826 8.39313 12.789 8.35206C12.5481 8.24644 12.3958 8.02963 12.3958 7.79231V7.1875C12.3958 7.01494 12.2372 6.875 12.0417 6.875H11.3333ZM13.1042 10.3125C13.1042 11.0029 12.4699 11.5625 11.6875 11.5625C10.9051 11.5625 10.2708 11.0029 10.2708 10.3125C10.2708 9.62213 10.9051 9.0625 11.6875 9.0625C12.4699 9.0625 13.1042 9.62213 13.1042 10.3125Z" fill="#35094D" fill-opacity="0.4"/>
</svg>
