<svg width="162" height="149" viewBox="0 0 162 149" fill="none" xmlns="http://www.w3.org/2000/svg">
<g clip-path="url(#clip0_59_395)">
<path d="M81.0002 17.9146C83.7117 17.9146 85.9176 15.8873 85.9176 13.3956V4.52682C85.9176 2.03107 83.7117 0 81.0002 0C78.2884 0 76.0825 2.03107 76.0825 4.52682V13.3956C76.0825 15.8873 78.2884 17.9146 81.0002 17.9146Z" fill="#F99D22"/>
<path d="M45.3618 23.4218C46.2599 24.8077 47.8924 25.6687 49.6224 25.6687C50.4952 25.6687 51.3452 25.4547 52.0821 25.0502C53.2179 24.4486 54.0297 23.4782 54.3687 22.3153C54.7077 21.1532 54.5343 19.9337 53.8771 18.8755L49.0493 11.193C48.1748 9.79335 46.5423 8.92383 44.7888 8.92383C43.9272 8.92383 43.0749 9.13471 42.3223 9.53484C41.1889 10.1393 40.3791 11.1166 40.0421 12.2872C39.7059 13.456 39.8824 14.6733 40.5361 15.7108L45.3618 23.4218Z" fill="#F99D22"/>
<path d="M15.8311 41.7553L24.1689 46.1715C24.915 46.5789 25.7684 46.7938 26.6368 46.7938C28.3821 46.7938 30.017 45.929 30.9085 44.529C32.259 42.3798 31.4529 39.6074 29.1036 38.3449L20.7495 33.9124C20.0038 33.5148 19.1541 33.3052 18.2929 33.3052C16.5302 33.3052 14.8932 34.1772 14.0259 35.5728C12.6799 37.7092 13.4822 40.4785 15.8311 41.7553Z" fill="#F99D22"/>
<path d="M23.1449 71.1302C23.1449 68.6344 20.939 66.604 18.2272 66.604H8.58468C5.87322 66.604 3.66699 68.6348 3.66699 71.1302C3.66699 73.6266 5.87288 75.6573 8.58468 75.6573H18.2276C20.939 75.6573 23.1449 73.6266 23.1449 71.1302Z" fill="#F99D22"/>
<path d="M26.6511 95.4736C25.7919 95.4736 24.9413 95.6826 24.1856 96.0809L15.8342 100.52C14.6909 101.123 13.874 102.096 13.5333 103.261C13.193 104.425 13.3681 105.64 14.0181 106.672C14.8848 108.078 16.518 108.952 18.28 108.952C19.1429 108.952 19.9932 108.745 20.7455 108.351L29.119 103.916C31.4543 102.646 32.2566 99.872 30.9096 97.7341C30.0364 96.34 28.4046 95.4736 26.6511 95.4736Z" fill="#F99D22"/>
<path d="M146.171 100.524L137.816 96.082C137.07 95.6841 136.221 95.4741 135.361 95.4741C133.617 95.4741 131.984 96.3358 131.093 97.7311C129.744 99.8722 130.546 102.647 132.898 103.925L141.262 108.355C142.008 108.746 142.852 108.952 143.704 108.952C145.442 108.952 147.075 108.095 147.979 106.694C148.633 105.644 148.806 104.426 148.467 103.264C148.127 102.097 147.309 101.123 146.171 100.524Z" fill="#F99D22"/>
<path d="M153.415 66.604H143.773C141.061 66.604 138.855 68.6348 138.855 71.1302C138.855 73.6266 141.061 75.6573 143.773 75.6573H153.416C156.127 75.6573 158.333 73.6266 158.333 71.1302C158.333 68.6348 156.127 66.604 153.415 66.604Z" fill="#F99D22"/>
<path d="M135.364 46.7937C136.232 46.7937 137.086 46.5781 137.812 46.1817L146.163 41.7583C147.304 41.1595 148.121 40.1856 148.464 39.0159C148.809 37.8434 148.635 36.6201 147.979 35.5805C147.107 34.1767 145.473 33.3047 143.715 33.3047C142.857 33.3047 142.008 33.5134 141.254 33.9107L132.881 38.3532C130.551 39.6201 129.748 42.3903 131.105 44.5492C132.005 45.9338 133.637 46.7937 135.364 46.7937Z" fill="#F99D22"/>
<path d="M109.909 25.0298C110.655 25.4372 111.508 25.6524 112.378 25.6524C114.115 25.6524 115.747 24.7973 116.651 23.4011L121.461 15.7152C122.12 14.6692 122.294 13.4485 121.952 12.2775C121.61 11.1081 120.794 10.1324 119.666 9.53797C118.919 9.13627 118.068 8.92383 117.206 8.92383C115.455 8.92383 113.825 9.79335 112.953 11.1896L108.124 18.8739C107.465 19.9183 107.291 21.135 107.631 22.2997C107.972 23.4659 108.79 24.4398 109.909 25.0298Z" fill="#F99D22"/>
<path d="M81.0002 26.8506C53.1494 26.8506 30.4912 47.0529 30.4912 71.8847C30.4912 87.8256 37.4581 97.2255 42.5461 104.091C45.0419 107.454 46.5573 109.594 46.5573 110.946C46.5573 113.877 46.9661 118.745 47.3268 123.04C47.6089 126.398 47.8753 129.571 47.8753 130.962C47.8753 135.704 51.8701 137.772 54.5135 139.142C55.2217 139.509 55.8908 139.855 56.4952 140.227C56.8028 140.441 57.4426 141.403 57.8657 142.04C59.5964 144.643 62.4928 149 69.3568 149H92.6578C99.9191 149 102.978 144.66 104.806 142.067C105.261 141.421 105.949 140.445 106.274 140.249C106.876 139.885 107.528 139.549 108.218 139.194C110.891 137.816 114.93 135.736 114.93 130.962C114.93 129.404 115.037 126.14 115.15 122.685C115.287 118.502 115.442 113.762 115.442 110.947C115.442 109.596 116.971 107.436 119.487 104.039L119.51 104.007C124.288 97.562 131.509 87.8221 131.509 71.8847C131.509 47.0529 108.851 26.8506 81.0002 26.8506ZM113.318 100.123L113.293 100.156C110.306 104.188 107.947 107.374 107.947 110.946C107.947 113.657 107.794 118.343 107.659 122.477C107.539 126.138 107.435 129.299 107.435 130.962C107.435 131.539 107.077 131.881 104.555 133.179C103.817 133.559 102.982 133.99 102.158 134.488C100.517 135.48 99.5007 136.922 98.5175 138.317C96.7623 140.807 95.7045 142.107 92.6582 142.107H69.3571C66.9359 142.107 65.9906 141.047 64.2603 138.444C63.3026 137.003 62.3123 135.514 60.6733 134.504C59.8205 133.979 58.9549 133.531 58.1911 133.135C55.7215 131.856 55.3703 131.523 55.3703 130.962C55.3703 129.305 55.1059 126.156 54.7996 122.509C54.4494 118.339 54.0522 113.612 54.0522 110.947C54.0522 107.368 51.8224 104.364 48.7376 100.207C43.9473 93.7439 37.9858 85.7002 37.9858 71.8854C37.9858 50.8546 57.2818 33.7447 80.9998 33.7447C104.718 33.7447 124.014 50.8546 124.014 71.8854C124.014 85.6955 118.083 93.6954 113.318 100.123Z" fill="#F99D22"/>
<path d="M94.1463 72.3873C93.3811 70.7592 91.6406 69.707 89.7113 69.707C89.6337 69.707 72.3071 69.707 72.2884 69.707C70.3591 69.707 68.6182 70.7589 67.8534 72.3873L58.5447 92.186C58.0327 93.2752 58.0123 94.4822 58.4872 95.5855C58.9624 96.6887 59.8761 97.5554 61.06 98.0261C61.6715 98.2689 62.316 98.3923 62.9749 98.3923C64.9032 98.3923 66.644 97.3405 67.4092 95.7124L69.1041 92.1074V129.886C69.1041 132.583 71.4898 134.777 74.4224 134.777C77.3549 134.777 79.7411 132.583 79.7411 129.886V103.967H81.997V129.886C81.997 132.583 84.3828 134.777 87.3154 134.777C90.2479 134.777 92.634 132.583 92.634 129.886V91.5512L94.5902 95.712C95.3557 97.3398 97.0962 98.392 99.0245 98.392C99.6837 98.392 100.328 98.2686 100.939 98.0257C102.124 97.5551 103.037 96.6884 103.512 95.5851C103.987 94.4822 103.967 93.2749 103.455 92.1857L94.1463 72.3873Z" fill="#F99D22"/>
<path d="M80.3943 68.0789C87.1046 68.0789 92.5636 63.0567 92.5636 56.8833C92.5636 50.7102 87.1046 45.688 80.3943 45.688C73.6826 45.688 68.2222 50.7102 68.2222 56.8833C68.2222 63.0564 73.6826 68.0789 80.3943 68.0789Z" fill="#F99D22"/>
</g>
<defs>
<clipPath id="clip0_59_395">
<rect width="162" height="149" fill="white"/>
</clipPath>
</defs>
</svg>
