<svg width="64" height="64" viewBox="0 0 64 64" fill="none" xmlns="http://www.w3.org/2000/svg">
<path d="M57.91 32.2881L59.43 31.7469V18.2856H54.8588V28.6831C52.0706 30.2956 50.2875 33.2913 50.2875 36.5713C50.2875 39.8513 52.0713 42.8469 54.8588 44.4594V52.5713H9.14438V44.46C11.9325 42.8475 13.7156 39.8519 13.7156 36.5719C13.7156 33.2919 11.9319 30.2963 9.14438 28.6838V20.5713H27.43V16H4.57313V31.7469L6.09313 32.2881C7.91813 32.9369 9.14438 34.6588 9.14438 36.5719C9.14438 38.485 7.91813 40.2069 6.09313 40.8556L4.57313 41.3969V57.1437H59.43V41.3963L57.91 40.855C56.085 40.2062 54.8588 38.4844 54.8588 36.5713C54.8588 34.6588 56.0856 32.9362 57.91 32.2881Z" fill="#35094D" fill-opacity="0.4"/>
<path d="M22.8581 38.8243L32.5881 38.8568L53.5994 17.8456L43.9019 8.14868L22.8906 29.1599L22.8581 38.8243ZM27.445 34.2687L27.4556 31.0599L27.7719 30.7437L31.0044 33.9762L30.7013 34.2793L27.445 34.2687ZM31.0044 27.5112L39.0806 19.4349L42.3131 22.6674L34.2363 30.7437L31.0044 27.5112ZM47.1344 17.8462L45.545 19.4356L42.3125 16.2031L43.9019 14.6137L47.1344 17.8462ZM13.7156 43.4287H50.2869V47.9999H13.7156V43.4287Z" fill="#35094D" fill-opacity="0.4"/>
</svg>
