<svg width="16" height="18" viewBox="0 0 16 18" fill="none" xmlns="http://www.w3.org/2000/svg">
<path d="M7.60074 3.47688C8.01464 3.46086 8.33874 3.07034 8.32444 2.60462C8.31024 2.13891 7.96314 1.77435 7.54914 1.79037L7.60074 3.47688ZM3.03337 8.226L2.28373 8.25187C2.284 8.26177 2.28442 8.27167 2.285 8.28157L3.03337 8.226ZM1.7532 12.0701L2.24281 12.7092C2.25622 12.6963 2.26922 12.6828 2.28178 12.6687L1.7532 12.0701ZM1.31445 12.4785L1.75501 13.1614C1.76739 13.1512 1.77949 13.1407 1.7913 13.1298L1.31445 12.4785ZM5.62492 15.1875C6.03914 15.1875 6.37494 14.8097 6.37494 14.3437C6.37494 13.8778 6.03914 13.5 5.62492 13.5V15.1875ZM7.60074 1.79037C7.18674 1.77435 6.83964 2.13891 6.82534 2.60462C6.81114 3.07034 7.13514 3.46086 7.54914 3.47688L7.60074 1.79037ZM12.1164 8.226L12.8648 8.28146C12.8654 8.27156 12.8658 8.26177 12.8661 8.25187L12.1164 8.226ZM13.3966 12.069L12.868 12.6676C12.8806 12.6816 12.8936 12.6952 12.907 12.7081L13.3966 12.069ZM13.8354 12.4774L13.3585 13.1286C13.3701 13.1393 13.3819 13.1497 13.394 13.1596L13.8354 12.4774ZM9.52494 13.5C9.11074 13.5 8.77494 13.8778 8.77494 14.3437C8.77494 14.8097 9.11074 15.1875 9.52494 15.1875V13.5ZM6.82494 2.63362C6.82494 3.09961 7.16074 3.47737 7.57494 3.47737C7.98914 3.47737 8.32494 3.09961 8.32494 2.63362H6.82494ZM8.32494 0.84375C8.32494 0.377764 7.98914 0 7.57494 0C7.16074 0 6.82494 0.377764 6.82494 0.84375H8.32494ZM5.62492 13.5C5.21071 13.5 4.87492 13.8778 4.87492 14.3437C4.87492 14.8097 5.21071 15.1875 5.62492 15.1875V13.5ZM9.52494 15.1875C9.93914 15.1875 10.2749 14.8097 10.2749 14.3437C10.2749 13.8778 9.93914 13.5 9.52494 13.5V15.1875ZM6.37494 14.3437C6.37494 13.8778 6.03914 13.5 5.62492 13.5C5.21071 13.5 4.87492 13.8778 4.87492 14.3437H6.37494ZM10.2749 14.3437C10.2749 13.8778 9.93914 13.5 9.52494 13.5C9.11074 13.5 8.77494 13.8778 8.77494 14.3437H10.2749ZM7.54914 1.79037C4.5273 1.9073 2.19003 4.81726 2.28373 8.25187L3.78302 8.20012C3.71357 5.6544 5.43992 3.56049 7.60074 3.47688L7.54914 1.79037ZM2.285 8.28157C2.35523 9.4779 1.96461 10.6445 1.22462 11.4715L2.28178 12.6687C3.33415 11.4925 3.88015 9.84667 3.78174 8.17042L2.285 8.28157ZM1.26359 11.431C1.1069 11.5829 0.975202 11.6998 0.837592 11.8272L1.7913 13.1298C1.90134 13.0277 2.06994 12.8769 2.24281 12.7092L1.26359 11.431ZM0.873892 11.7956C0.654632 11.9747 0.455392 12.2305 0.306872 12.5007C0.160192 12.7673 0.0198524 13.1263 0.00187243 13.5234C-0.0177976 13.9578 0.115202 14.4408 0.510312 14.7807C0.863792 15.0849 1.32958 15.1875 1.82242 15.1875V13.5C1.65909 13.5 1.55105 13.482 1.48477 13.463C1.41905 13.4442 1.40736 13.4281 1.42152 13.4403C1.43986 13.4561 1.46705 13.4896 1.48498 13.5379C1.50126 13.5819 1.49986 13.6107 1.49993 13.6093C1.50007 13.6061 1.50206 13.5825 1.51634 13.5381C1.53029 13.4948 1.55227 13.4434 1.58243 13.3886C1.61242 13.3341 1.64653 13.2833 1.68032 13.241C1.71507 13.1974 1.74208 13.1718 1.75501 13.1614L0.873892 11.7956ZM1.82242 15.1875H5.62492V13.5H1.82242V15.1875ZM7.54914 3.47688C9.70994 3.56049 11.4362 5.6544 11.3668 8.20012L12.8661 8.25187C12.9598 4.81726 10.6225 1.9073 7.60074 1.79037L7.54914 3.47688ZM11.3681 8.17054C11.27 9.84645 11.816 11.4918 12.868 12.6676L13.9252 11.4704C13.1854 10.6436 12.7948 9.47745 12.8648 8.28146L11.3681 8.17054ZM12.907 12.7081C13.0799 12.8757 13.2485 13.0266 13.3585 13.1286L14.3122 11.8261C14.1746 11.6986 14.0429 11.5818 13.8862 11.4299L12.907 12.7081ZM13.394 13.1596C13.4074 13.1705 13.4348 13.1965 13.4698 13.2405C13.5039 13.2832 13.5383 13.3342 13.5686 13.3891C13.599 13.4442 13.6212 13.4958 13.6353 13.5394C13.6497 13.5839 13.6518 13.6077 13.6519 13.6108C13.652 13.6122 13.6505 13.583 13.6669 13.5387C13.6849 13.4899 13.7124 13.4561 13.7309 13.4401C13.7451 13.4279 13.7334 13.444 13.6674 13.4629C13.6008 13.482 13.4923 13.5 13.3284 13.5V15.1875C13.8217 15.1875 14.2881 15.085 14.6418 14.7808C15.0377 14.4404 15.1703 13.9564 15.1498 13.5217C15.1311 13.1244 14.99 12.7656 14.8431 12.4992C14.6943 12.2294 14.4951 11.974 14.2767 11.7952L13.394 13.1596ZM13.3284 13.5H9.52494V15.1875H13.3284V13.5ZM8.32494 2.63362V0.84375H6.82494V2.63362H8.32494ZM5.62492 15.1875H9.52494V13.5H5.62492V15.1875ZM4.87492 14.3437C4.87492 16.0321 6.06594 17.4375 7.57494 17.4375V15.75C6.92994 15.75 6.37494 15.1407 6.37494 14.3437H4.87492ZM7.57494 17.4375C9.08384 17.4375 10.2749 16.0321 10.2749 14.3437H8.77494C8.77494 15.1407 8.21984 15.75 7.57494 15.75V17.4375Z" fill="#35094D" fill-opacity="0.4"/>
</svg>
