<svg width="41" height="43" viewBox="0 0 41 43" fill="none" xmlns="http://www.w3.org/2000/svg">
<path d="M36.916 21.3108V12.7108C36.916 10.8861 36.2248 9.13607 34.9946 7.84581C33.7644 6.55557 32.0957 5.83081 30.356 5.83081H10.676C8.93614 5.83081 7.26757 6.55557 6.03734 7.84581C4.8071 9.13607 4.11597 10.8861 4.11597 12.7108V29.9108C4.11597 31.7355 4.8071 33.4853 6.03734 34.7756C7.26757 36.0658 8.93614 36.7908 10.676 36.7908H20.516" stroke="#757575" stroke-width="3.84" stroke-linecap="round" stroke-linejoin="round"/>
<path d="M35.6027 9.32227C26.4023 27.623 14.5944 27.6058 5.39404 9.32227" stroke="#757575" stroke-width="3.84" stroke-linecap="round" stroke-linejoin="round"/>
<path d="M25.436 31.6309H38.556" stroke="#757575" stroke-width="3.84" stroke-linecap="round" stroke-linejoin="round"/>
<path d="M33.636 26.4707L38.556 31.6307L33.636 36.7907" stroke="#757575" stroke-width="3.84" stroke-linecap="round" stroke-linejoin="round"/>
</svg>
