<svg width="307" height="175" viewBox="0 0 307 175" fill="none" xmlns="http://www.w3.org/2000/svg">
<path d="M79.2273 48.7058C79.2042 40.6932 83.0637 33.8307 90.8057 28.1183C98.5478 22.4059 107.881 19.534 118.806 19.5025C129.732 19.471 139.081 22.2892 146.856 27.9569C154.631 33.6247 158.609 40.4646 158.791 48.4767C158.793 49.4057 158.637 50.219 158.323 50.9167L145.369 88.7527C144.909 93.8635 142.15 98.1681 137.093 101.666C132.037 105.165 126.025 106.924 119.058 106.944C112.25 106.964 106.307 105.297 101.231 101.944C96.1546 98.5908 93.2925 94.4186 92.6448 89.4271C91.0514 85.9479 89.3779 82.1206 87.6242 77.9451C85.8704 73.7697 84.035 68.7235 82.118 62.8067C80.2009 56.8898 79.2373 52.1895 79.2273 48.7058ZM92.5417 136.11C92.5263 130.768 95.1258 126.232 100.34 122.501C105.555 118.77 111.803 116.835 119.086 116.698C126.369 116.561 132.629 118.459 137.866 122.393C143.102 126.326 145.728 130.847 145.742 135.956C145.758 141.414 143.159 146.009 137.944 149.74C132.73 153.471 126.481 155.405 119.198 155.542C111.915 155.679 105.655 153.781 100.419 149.848C95.1825 145.915 92.5568 141.335 92.5417 136.11Z" fill="#F99D22"/>
<path d="M198.912 110.336C195.744 110.336 192.832 109.6 190.176 108.128C187.552 106.656 185.456 104.608 183.888 101.984C182.352 99.328 181.584 96.352 181.584 93.056C181.584 89.76 182.352 86.8 183.888 84.176C185.456 81.552 187.552 79.504 190.176 78.032C192.832 76.56 195.744 75.824 198.912 75.824C202.08 75.824 204.976 76.56 207.6 78.032C210.256 79.504 212.336 81.552 213.84 84.176C215.376 86.8 216.144 89.76 216.144 93.056C216.144 96.352 215.376 99.328 213.84 101.984C212.304 104.608 210.224 106.656 207.6 108.128C204.976 109.6 202.08 110.336 198.912 110.336ZM198.912 102.848C201.6 102.848 203.744 101.952 205.344 100.16C206.976 98.368 207.792 96 207.792 93.056C207.792 90.08 206.976 87.712 205.344 85.952C203.744 84.16 201.6 83.264 198.912 83.264C196.192 83.264 194.016 84.144 192.384 85.904C190.784 87.664 189.984 90.048 189.984 93.056C189.984 96.032 190.784 98.416 192.384 100.208C194.016 101.968 196.192 102.848 198.912 102.848ZM232.422 110.384C229.798 110.384 227.43 109.824 225.318 108.704C223.238 107.584 221.59 105.984 220.374 103.904C219.19 101.824 218.598 99.392 218.598 96.608C218.598 93.856 219.206 91.44 220.422 89.36C221.638 87.248 223.302 85.632 225.414 84.512C227.526 83.392 229.894 82.832 232.518 82.832C235.142 82.832 237.51 83.392 239.622 84.512C241.734 85.632 243.398 87.248 244.614 89.36C245.83 91.44 246.438 93.856 246.438 96.608C246.438 99.36 245.814 101.792 244.566 103.904C243.35 105.984 241.67 107.584 239.526 108.704C237.414 109.824 235.046 110.384 232.422 110.384ZM232.422 103.28C233.99 103.28 235.318 102.704 236.406 101.552C237.526 100.4 238.086 98.752 238.086 96.608C238.086 94.464 237.542 92.816 236.454 91.664C235.398 90.512 234.086 89.936 232.518 89.936C230.918 89.936 229.59 90.512 228.534 91.664C227.478 92.784 226.95 94.432 226.95 96.608C226.95 98.752 227.462 100.4 228.486 101.552C229.542 102.704 230.854 103.28 232.422 103.28ZM258.521 87.008C259.321 85.76 260.425 84.752 261.833 83.984C263.241 83.216 264.889 82.832 266.777 82.832C268.985 82.832 270.985 83.392 272.777 84.512C274.569 85.632 275.977 87.232 277.001 89.312C278.057 91.392 278.585 93.808 278.585 96.56C278.585 99.312 278.057 101.744 277.001 103.856C275.977 105.936 274.569 107.552 272.777 108.704C270.985 109.824 268.985 110.384 266.777 110.384C264.921 110.384 263.273 110 261.833 109.232C260.425 108.464 259.321 107.472 258.521 106.256L258.521 122.768L250.313 122.768L250.313 83.216L258.521 83.216L258.521 87.008ZM270.233 96.56C270.233 94.512 269.657 92.912 268.505 91.76C267.385 90.576 265.993 89.984 264.329 89.984C262.697 89.984 261.305 90.576 260.153 91.76C259.033 92.944 258.473 94.56 258.473 96.608C258.473 98.656 259.033 100.272 260.153 101.456C261.305 102.64 262.697 103.232 264.329 103.232C265.961 103.232 267.353 102.64 268.505 101.456C269.657 100.24 270.233 98.608 270.233 96.56ZM293.307 110.384C290.971 110.384 288.891 109.984 287.067 109.184C285.243 108.384 283.803 107.296 282.747 105.92C281.691 104.512 281.099 102.944 280.971 101.216L289.083 101.216C289.179 102.144 289.611 102.896 290.379 103.472C291.147 104.048 292.091 104.336 293.211 104.336C294.235 104.336 295.019 104.144 295.563 103.76C296.139 103.344 296.427 102.816 296.427 102.176C296.427 101.408 296.027 100.848 295.227 100.496C294.427 100.112 293.131 99.696 291.339 99.248C289.419 98.8 287.819 98.336 286.539 97.856C285.259 97.344 284.155 96.56 283.227 95.504C282.299 94.416 281.835 92.96 281.835 91.136C281.835 89.6 282.251 88.208 283.083 86.96C283.947 85.68 285.195 84.672 286.827 83.936C288.491 83.2 290.459 82.832 292.731 82.832C296.091 82.832 298.731 83.664 300.651 85.328C302.603 86.992 303.723 89.2 304.011 91.952L296.427 91.952C296.299 91.024 295.883 90.288 295.179 89.744C294.507 89.2 293.611 88.928 292.491 88.928C291.531 88.928 290.795 89.12 290.283 89.504C289.771 89.856 289.515 90.352 289.515 90.992C289.515 91.76 289.915 92.336 290.715 92.72C291.547 93.104 292.827 93.488 294.555 93.872C296.539 94.384 298.155 94.896 299.403 95.408C300.651 95.888 301.739 96.688 302.667 97.808C303.627 98.896 304.123 100.368 304.155 102.224C304.155 103.792 303.707 105.2 302.811 106.448C301.947 107.664 300.683 108.624 299.019 109.328C297.387 110.032 295.483 110.384 293.307 110.384Z" fill="#F99D22"/>
</svg>
