<svg width="15" height="16" viewBox="0 0 15 16" fill="none" xmlns="http://www.w3.org/2000/svg">
<g clip-path="url(#clip0_439_33)">
<path d="M14.4643 2.06812H12.4235H5.79086H3.75001C3.45414 2.06812 3.21428 2.32396 3.21428 2.63955V4.6259H3.75001H4.28573H4.58465H5.52786C5.89601 4.25081 6.16062 3.76134 6.27016 3.21099H11.9442C12.1548 4.26856 12.9371 5.10303 13.9286 5.32768V8.11466C12.9371 8.33922 12.1548 9.17375 11.9442 10.2313H11.4286V11.3742H12.4235H14.4643C14.7602 11.3742 15 11.1184 15 10.8028V8.62591V4.81634V2.63955C15 2.32393 14.7602 2.06812 14.4643 2.06812Z" fill="#35094D" fill-opacity="0.4"/>
<path d="M9.8215 5.7688H4.2857H3.21425H0.535724C0.239854 5.7688 0 6.02464 0 6.34021V8.05449H10.3572V6.34021C10.3572 6.02464 10.1174 5.7688 9.8215 5.7688Z" fill="#35094D" fill-opacity="0.4"/>
<path d="M0 9.19727V13.3605C0 13.6761 0.239854 13.932 0.535724 13.932H9.8215C10.1174 13.932 10.3572 13.6761 10.3572 13.3605V11.3741V10.2313V9.19727H0ZM4.46435 11.483H2.67859C2.38272 11.483 2.14287 11.2271 2.14287 10.9115C2.14287 10.596 2.38272 10.3401 2.67859 10.3401H4.46435C4.76022 10.3401 5.00008 10.596 5.00008 10.9115C5.00005 11.2271 4.76019 11.483 4.46435 11.483Z" fill="#35094D" fill-opacity="0.4"/>
</g>
<defs>
<clipPath id="clip0_439_33">
<rect width="15" height="16" fill="white"/>
</clipPath>
</defs>
</svg>
