<svg width="24" height="26" viewBox="0 0 24 26" fill="none" xmlns="http://www.w3.org/2000/svg">
<path d="M13.1998 5.70011H15.5537C15.6879 5.69881 15.8164 5.64044 15.9113 5.53758C16.0063 5.43472 16.0601 5.29558 16.0614 5.15011C16.0574 5.00384 16.0087 4.86313 15.9229 4.75011L12.5998 1.20011C12.5596 1.15077 12.5097 1.11172 12.4538 1.08579C12.398 1.05985 12.3375 1.04766 12.2767 1.05011C12.1425 1.05142 12.014 1.10978 11.9191 1.21265C11.8241 1.31551 11.7702 1.45465 11.769 1.60011V4.15011C11.7715 4.56039 11.923 4.95312 12.1908 5.24323C12.4586 5.53335 12.8211 5.69749 13.1998 5.70011Z" fill="white"/>
<path d="M22.9983 16.225C23.0008 16.0371 22.9349 15.8556 22.8148 15.72C22.6948 15.5843 22.5302 15.5053 22.3568 15.5H16.8183C16.7309 15.4994 16.6442 15.5175 16.5633 15.5535C16.4823 15.5894 16.4088 15.6424 16.347 15.7094C16.2852 15.7764 16.2362 15.856 16.203 15.9437C16.1699 16.0314 16.1531 16.1253 16.1537 16.22V16.94C16.1524 17.1279 16.2195 17.3088 16.3405 17.4436C16.4614 17.5783 16.6264 17.6561 16.7999 17.66H19.6337L14.5568 23.16C14.435 23.293 14.3667 23.4727 14.3667 23.66C14.3667 23.8473 14.435 24.027 14.5568 24.16L15.0183 24.66C15.0844 24.7315 15.1629 24.7881 15.2492 24.8267C15.3355 24.8654 15.428 24.8852 15.5214 24.885C15.6017 24.8859 15.6814 24.8695 15.7558 24.8369C15.8303 24.8043 15.8981 24.7561 15.9552 24.695L21.0322 19.195V22.195C21.0316 22.2893 21.0482 22.3828 21.0811 22.4702C21.114 22.5575 21.1625 22.6369 21.2238 22.7038C21.2852 22.7708 21.3581 22.8239 21.4385 22.8601C21.5189 22.8964 21.6051 22.915 21.6922 22.915H22.3983C22.4854 22.9177 22.5721 22.9016 22.6534 22.8678C22.7347 22.834 22.809 22.7831 22.8721 22.7181C22.9352 22.653 22.9857 22.575 23.0208 22.4887C23.056 22.4024 23.075 22.3094 23.0768 22.215L22.9983 16.225Z" fill="white"/>
<path d="M8.46926 10.3401H7.79541V12.8051H8.46926C8.62854 12.8127 8.78566 12.7628 8.91597 12.6633C9.04628 12.5638 9.1424 12.4202 9.18926 12.2551C9.26736 12.0247 9.30493 11.7805 9.30003 11.5351C9.31476 11.2296 9.25759 10.9251 9.13387 10.6501C9.0592 10.5383 8.95801 10.4504 8.841 10.3959C8.724 10.3413 8.59555 10.322 8.46926 10.3401Z" fill="white"/>
<path d="M5.21073 10.4651C5.09929 10.3749 4.96187 10.3306 4.82304 10.3401H4.15381V11.4551H4.82765C4.96876 11.4647 5.10779 11.4145 5.21535 11.3151C5.26569 11.2585 5.30412 11.1908 5.32802 11.1165C5.35192 11.0423 5.36072 10.9634 5.35381 10.8851C5.36059 10.8071 5.35034 10.7284 5.32388 10.6555C5.29742 10.5825 5.2555 10.5173 5.2015 10.4651H5.21073Z" fill="white"/>
<path d="M15.3415 8.00034H11.7231C11.1546 8.00437 10.6077 7.76492 10.2014 7.33414C9.7951 6.90337 9.56236 6.31614 9.55385 5.70034V1.80034C9.55884 1.70707 9.54679 1.61365 9.51838 1.52543C9.48998 1.43722 9.44578 1.35594 9.38833 1.28627C9.33087 1.21659 9.26129 1.15989 9.18356 1.1194C9.10584 1.07892 9.0215 1.05545 8.93539 1.05034H3.13847C2.56999 1.04632 2.02306 1.28576 1.61677 1.71654C1.21048 2.14732 0.977747 2.73454 0.969238 3.35034V18.0503C0.969236 18.3532 1.02446 18.6531 1.13173 18.9328C1.239 19.2125 1.39621 19.4665 1.59433 19.6802C1.79246 19.8939 2.02759 20.0631 2.28624 20.1781C2.54489 20.2931 2.82196 20.3517 3.10155 20.3503H11.3539V20.3003C11.3498 18.6882 11.7978 17.1127 12.6384 15.7823C13.4791 14.452 14.6728 13.4296 16.0615 12.8503V8.80034C16.0628 8.6966 16.0451 8.59361 16.0096 8.49725C15.9741 8.4009 15.9214 8.31307 15.8545 8.23878C15.7876 8.16449 15.7079 8.1052 15.6199 8.06429C15.5319 8.02338 15.4373 8.00165 15.3415 8.00034ZM5.76462 11.8253C5.51243 12.025 5.20421 12.124 4.89232 12.1053H4.15385V13.4603H3.45693V9.68534H4.95232C5.24949 9.6795 5.53838 9.79153 5.76462 10.0003C5.87216 10.1178 5.95505 10.259 6.00762 10.4143C6.06019 10.5696 6.08121 10.7354 6.06924 10.9003C6.08306 11.0692 6.063 11.2393 6.01042 11.399C5.95784 11.5586 5.87399 11.7041 5.76462 11.8253ZM9.76155 12.7753C9.65008 13.0034 9.48121 13.1926 9.27454 13.3209C9.06786 13.4492 8.83185 13.5114 8.59385 13.5003H7.08924V9.68534H8.59385C8.77682 9.68339 8.95897 9.71206 9.13385 9.77034C9.3735 9.85427 9.58107 10.0212 9.72462 10.2453C9.84375 10.429 9.92843 10.6363 9.97385 10.8553C10.0184 11.0669 10.0401 11.2834 10.0385 11.5003C10.0524 11.9445 9.95681 12.3846 9.76155 12.7753ZM13.4169 10.3553H11.6585V11.2253H13.2V11.8803H11.6585V13.4603H10.9339V9.69034H13.4169V10.3553Z" fill="white"/>
</svg>
