<svg width="35" height="35" viewBox="0 0 35 35" fill="none" xmlns="http://www.w3.org/2000/svg">
<path d="M16.1925 25.8112L26.7238 15.3877C25.3009 14.7869 23.617 13.8033 22.0279 12.1978C20.4386 10.592 19.4722 8.89779 18.8861 7.46862L8.35471 17.8922C7.53291 18.7057 7.12194 19.1125 6.76805 19.5613C6.35056 20.091 5.99203 20.6644 5.69877 21.2717C5.45017 21.7865 5.26453 22.3341 4.89322 23.4291L2.93524 29.2039C2.75252 29.7427 2.88995 30.3386 3.29024 30.7431C3.69054 31.1475 4.28498 31.2911 4.82574 31.114L10.6203 29.2154C11.7192 28.8554 12.2686 28.6755 12.7859 28.4322C13.3962 28.1452 13.9733 27.7926 14.5073 27.3806C14.9597 27.0313 15.3708 26.6245 16.1925 25.8112Z" fill="#F99D22"/>
<path d="M29.646 12.4955C31.8327 10.3312 31.8509 6.8039 29.6865 4.61716C27.5222 2.4304 23.9949 2.41225 21.8081 4.57661L20.5451 5.82677C20.5621 5.87882 20.5796 5.93158 20.5978 5.98504C21.0516 7.31503 21.9117 9.05986 23.5381 10.7031C25.1645 12.3463 26.9004 13.2244 28.2257 13.6918C28.2787 13.7105 28.3311 13.7285 28.3827 13.7459L29.646 12.4955Z" fill="#F99D22"/>
</svg>
