<svg width="18" height="19" viewBox="0 0 18 19" fill="none" xmlns="http://www.w3.org/2000/svg">
<g clip-path="url(#clip0_77_1127)">
<path fill-rule="evenodd" clip-rule="evenodd" d="M5.99984 0.791992C8.48505 0.791992 10.4997 2.91858 10.4997 5.54186C10.4997 8.16512 8.48505 10.2917 5.99984 10.2917C3.51462 10.2917 1.49996 8.16512 1.49996 5.54186C1.49996 2.91858 3.51462 0.791992 5.99984 0.791992ZM0.749979 18.2866C0.335777 18.2866 0 17.9322 0 17.4949V15.8332C0 13.6472 1.67888 11.875 3.74989 11.875H8.2503C10.3213 11.875 12.0002 13.6472 12.0002 15.8332V17.4949C12.0002 17.9322 11.6645 18.2866 11.2502 18.2866C10.836 18.2866 1.16418 18.2866 0.749979 18.2866ZM10.3113 9.94606C11.3565 8.80629 11.9997 7.25338 11.9997 5.54186C11.9997 3.83034 11.3565 2.27739 10.3113 1.13764C10.8327 0.914739 11.4026 0.791992 11.9997 0.791992C14.4849 0.791992 16.4995 2.91858 16.4995 5.54186C16.4995 8.16512 14.4849 10.2917 11.9997 10.2917C11.4026 10.2917 10.8327 10.169 10.3113 9.94606ZM11.9244 11.875H14.2502C16.3211 11.875 18 13.6472 18 15.8332V17.4949C18 17.9322 17.6642 18.2866 17.2501 18.2866H13.3721C13.455 18.0389 13.5002 17.7725 13.5002 17.4949V15.8332C13.5002 14.2826 12.8969 12.8808 11.9244 11.875Z" fill="#35094D" fill-opacity="0.42"/>
</g>
<defs>
<clipPath id="clip0_77_1127">
<rect width="18" height="19" fill="white"/>
</clipPath>
</defs>
</svg>
