<svg width="27" height="26" viewBox="0 0 27 26" fill="none" xmlns="http://www.w3.org/2000/svg">
<path d="M10.6734 14.9094L18.133 7.72606C18.2056 7.65619 18.3229 7.65619 18.3954 7.72606L22.3518 11.5359C22.4243 11.6058 22.4243 11.7187 22.3518 11.7886L14.8922 18.9719C14.5412 19.3099 14.0645 19.5 13.5675 19.5H11.1544C10.5857 19.5 10.125 19.0564 10.125 18.5088V16.185C10.125 15.7064 10.3224 15.2474 10.6734 14.9094ZM24.9632 6.97613L23.1306 5.21138C22.4716 4.57681 21.4034 4.57681 20.7444 5.21138L18.8612 7.02487L23.0799 11.0874L24.9632 9.27387C25.6222 8.63931 25.6222 7.61069 24.9632 6.97613ZM19.4062 16.25C19.4062 16.6993 19.0291 17.0625 18.5625 17.0625H18.0681L16.3806 18.6875H18.5625C19.0291 18.6875 19.4062 19.0507 19.4062 19.5C19.4062 19.9493 19.0291 20.3125 18.5625 20.3125H13.6451H10.9688H5.90625C5.43966 20.3125 5.0625 19.9493 5.0625 19.5C5.0625 19.0507 5.43966 18.6875 5.90625 18.6875H9.28125V17.0625H5.90625C5.43966 17.0625 5.0625 16.6993 5.0625 16.25C5.0625 15.8007 5.43966 15.4375 5.90625 15.4375H9.39094C9.50737 15.0459 9.71494 14.6835 10.0229 14.3869L10.6194 13.8125H5.90625C5.43966 13.8125 5.0625 13.4493 5.0625 13C5.0625 12.5507 5.43966 12.1875 5.90625 12.1875H12.3069L13.9944 10.5625H5.90625C5.43966 10.5625 5.0625 10.1993 5.0625 9.75C5.0625 9.30069 5.43966 8.9375 5.90625 8.9375H15.6819L17.3694 7.3125H5.90625C5.43966 7.3125 5.0625 6.94931 5.0625 6.5C5.0625 6.05069 5.43966 5.6875 5.90625 5.6875H19.0502L20.1479 4.63694C20.6255 4.17625 21.2617 3.92275 21.9375 3.92275C22.2303 3.92275 22.5129 3.97881 22.7812 4.07063V2.4375C22.7812 1.53969 22.0261 0.8125 21.0938 0.8125H2.53125C1.59891 0.8125 0.84375 1.53969 0.84375 2.4375V23.5625C0.84375 24.4603 1.59891 25.1875 2.53125 25.1875H21.0938C22.0261 25.1875 22.7812 24.4603 22.7812 23.5625V12.5239L19.2999 15.8763C19.3624 15.99 19.4062 16.1127 19.4062 16.25Z" fill="#35094D"/>
</svg>
