<svg width="18" height="18" viewBox="0 0 18 18" fill="none" xmlns="http://www.w3.org/2000/svg">
<path fill-rule="evenodd" clip-rule="evenodd" d="M17.2501 15.75V17.25H13.5001V15.75H17.2501ZM12.7501 15.75V17.25H11.2501V15.75H12.7501ZM17.2501 13.5V15H13.5001V13.5H17.2501ZM12.7501 13.5V15H11.2501V13.5H12.7501ZM5.81813 10.682C6.63247 11.4963 7.75747 12 9.00011 12C9.52608 12 10.031 11.9098 10.5001 11.7439L10.5002 13.311C10.0207 13.4344 9.51809 13.5 9.00011 13.5C7.34324 13.5 5.84323 12.8284 4.75744 11.7426L5.81813 10.682ZM17.2501 11.25V12.75H13.5001V11.25H17.2501ZM12.7501 11.25V12.75H11.2501V11.25H12.7501ZM9.00011 1.5C12.3138 1.5 15.0001 4.18629 15.0001 7.5C15.0001 8.59287 14.7079 9.6175 14.1974 10.5L12.3542 10.5001C13.0668 9.70395 13.5001 8.65258 13.5001 7.5C13.5001 5.01472 11.4854 3 9.00011 3C6.51483 3 4.50011 5.01472 4.50011 7.5C4.50011 7.64153 4.50665 7.78153 4.51943 7.91971L5.25011 7.18934L6.31077 8.25L3.75011 10.8107L1.18945 8.25L2.25011 7.18934L3.01719 7.95616C3.00588 7.80559 3.00011 7.65347 3.00011 7.5C3.00011 4.18629 5.68641 1.5 9.00011 1.5ZM9.75011 3.75V7.095L11.6626 8.3775L10.8376 9.6225L8.25011 7.905V3.75H9.75011Z" fill="#35094D"/>
</svg>
