<svg width="22" height="24" viewBox="0 0 22 24" fill="none" xmlns="http://www.w3.org/2000/svg">
<path fill-rule="evenodd" clip-rule="evenodd" d="M21.0833 21V23H16.5V21H21.0833ZM15.5833 21V23H13.75V21H15.5833ZM21.0833 18V20H16.5V18H21.0833ZM15.5833 18V20H13.75V18H15.5833ZM7.11091 14.2426C8.10622 15.3284 9.48122 16 11 16C11.6428 16 12.2599 15.8797 12.8334 15.6586L12.8334 17.7479C12.2474 17.9125 11.6331 18 11 18C8.97494 18 7.14158 17.1046 5.81451 15.6568L7.11091 14.2426ZM21.0833 15V17H16.5V15H21.0833ZM15.5833 15V17H13.75V15H15.5833ZM11 2C15.0501 2 18.3333 5.58172 18.3333 10C18.3333 11.4572 17.9762 12.8233 17.3522 14L15.0994 14.0001C15.9704 12.9386 16.5 11.5368 16.5 10C16.5 6.68629 14.0376 4 11 4C7.96243 4 5.5 6.68629 5.5 10C5.5 10.1887 5.50799 10.3754 5.52361 10.5596L6.41667 9.58579L7.71303 11L4.58333 14.4142L1.45364 11L2.75 9.58579L3.68754 10.6082C3.67371 10.4074 3.66667 10.2046 3.66667 10C3.66667 5.58172 6.94991 2 11 2ZM11.9167 5V9.46L14.2542 11.17L13.2458 12.83L10.0833 10.54V5H11.9167Z" fill="#35094D" fill-opacity="0.4"/>
</svg>
