<svg width="35" height="30" viewBox="0 0 35 30" fill="none" xmlns="http://www.w3.org/2000/svg">
<path d="M13.125 25.9374H8.75C8.24431 25.9559 7.73933 25.8886 7.26398 25.7396C6.78862 25.5906 6.35221 25.3628 5.97972 25.069C5.60722 24.7753 5.30596 24.4214 5.09317 24.0278C4.88037 23.6341 4.76022 23.2084 4.73959 22.7749V7.22493C4.76022 6.79146 4.88037 6.3657 5.09317 5.97207C5.30596 5.57843 5.60722 5.22462 5.97972 4.93088C6.35221 4.63714 6.78862 4.40924 7.26398 4.26023C7.73933 4.1112 8.24431 4.04399 8.75 4.06243H13.125C13.4151 4.06243 13.6933 4.1612 13.8984 4.33702C14.1035 4.51284 14.2188 4.75129 14.2188 4.99993C14.2188 5.24858 14.1035 5.48703 13.8984 5.66284C13.6933 5.83867 13.4151 5.93743 13.125 5.93743H8.75C8.31698 5.90515 7.88609 6.01699 7.54669 6.24972C7.20728 6.48246 6.9854 6.81824 6.92709 7.18743V22.7749C6.9854 23.1441 7.20728 23.4799 7.54669 23.7126C7.88609 23.9454 8.31698 24.0573 8.75 24.0249H13.125C13.4151 24.0249 13.6933 24.1238 13.8984 24.2995C14.1035 24.4754 14.2188 24.7138 14.2188 24.9624C14.2188 25.2111 14.1035 25.4495 13.8984 25.6254C13.6933 25.8011 13.4151 25.8999 13.125 25.8999V25.9374Z" fill="white"/>
<path d="M23.3333 20.9374C23.1897 20.938 23.0472 20.914 22.9145 20.8667C22.7818 20.8195 22.6613 20.75 22.5604 20.6624C22.3557 20.4866 22.2406 20.2484 22.2406 19.9999C22.2406 19.7515 22.3557 19.5131 22.5604 19.3374L27.6208 14.9999L22.5604 10.6624C22.4529 10.5766 22.3668 10.4731 22.307 10.3581C22.2472 10.2431 22.2151 10.1189 22.2125 9.99304C22.2098 9.86716 22.237 9.74212 22.2919 9.62539C22.3469 9.50865 22.4287 9.40261 22.5327 9.31359C22.6365 9.22456 22.7602 9.15439 22.8964 9.10724C23.0326 9.06009 23.1785 9.03692 23.3253 9.03915C23.4722 9.04136 23.617 9.06892 23.7512 9.12016C23.8853 9.1714 24.0061 9.24527 24.1063 9.33739L29.9396 14.3374C30.1445 14.5131 30.2594 14.7515 30.2594 14.9999C30.2594 15.2484 30.1445 15.4866 29.9396 15.6624L24.1063 20.6624C24.0053 20.75 23.8849 20.8195 23.7522 20.8667C23.6195 20.914 23.477 20.938 23.3333 20.9374Z" fill="white"/>
<path d="M29.1667 15.9375H13.125C12.8349 15.9375 12.5567 15.8388 12.3516 15.6629C12.1465 15.4871 12.0312 15.2486 12.0312 15C12.0312 14.7514 12.1465 14.5129 12.3516 14.3371C12.5567 14.1612 12.8349 14.0625 13.125 14.0625H29.1667C29.4567 14.0625 29.735 14.1612 29.94 14.3371C30.1452 14.5129 30.2604 14.7514 30.2604 15C30.2604 15.2486 30.1452 15.4871 29.94 15.6629C29.735 15.8388 29.4567 15.9375 29.1667 15.9375Z" fill="white"/>
</svg>
