<svg width="30" height="29" viewBox="0 0 30 29" fill="none" xmlns="http://www.w3.org/2000/svg">
<path d="M14.2749 1.80896C7.55357 1.80896 2.10205 7.07877 2.10205 13.5761C2.10205 17.3544 3.94591 20.7157 6.81152 22.8651L4.24072 25.2794L12.6782 25.3502L12.854 17.194L10.188 19.6932C8.11286 18.3959 6.73828 16.1436 6.73828 13.5761C6.73828 9.55161 10.1117 6.29065 14.2749 6.29065C14.4576 6.29065 14.6374 6.29954 14.8169 6.31189V1.82312C14.6381 1.81558 14.4557 1.80896 14.2749 1.80896ZM17.3218 3.64978L17.146 11.806L19.812 9.30676C21.8871 10.6041 23.2617 12.8564 23.2617 15.424C23.2617 19.4484 19.8883 22.7094 15.7251 22.7094C15.5424 22.7094 15.3626 22.7005 15.1831 22.6881V27.1769C15.3619 27.1844 15.5443 27.1911 15.7251 27.1911C22.4464 27.1911 27.8979 21.9212 27.8979 15.424C27.8979 11.6456 26.0541 8.28433 23.1885 6.1349L25.7593 3.72059L17.3218 3.64978Z" fill="#35094D"/>
</svg>
