<svg width="26" height="26" viewBox="0 0 26 26" fill="none" xmlns="http://www.w3.org/2000/svg">
<path d="M19.4999 4.91895H5.97994C5.40557 4.91895 4.93994 5.38457 4.93994 5.95895V8.03895C4.93994 8.61332 5.40557 9.07894 5.97994 9.07894H19.4999C20.0743 9.07894 20.5399 8.61332 20.5399 8.03895V5.95895C20.5399 5.38457 20.0743 4.91895 19.4999 4.91895Z" fill="#35094D"/>
<path d="M10.9199 10.6387H5.97994C5.40557 10.6387 4.93994 11.1043 4.93994 11.6787V13.7587C4.93994 14.333 5.40557 14.7987 5.97994 14.7987H10.9199C11.4943 14.7987 11.9599 14.333 11.9599 13.7587V11.6787C11.9599 11.1043 11.4943 10.6387 10.9199 10.6387Z" fill="#35094D"/>
<path d="M10.9199 16.3594H5.97994C5.40557 16.3594 4.93994 16.825 4.93994 17.3994V19.4794C4.93994 20.0538 5.40557 20.5194 5.97994 20.5194H10.9199C11.4943 20.5194 11.9599 20.0538 11.9599 19.4794V17.3994C11.9599 16.825 11.4943 16.3594 10.9199 16.3594Z" fill="#35094D"/>
<path d="M16.8869 18.8475C16.9221 18.8844 16.9645 18.9139 17.0114 18.934C17.0583 18.9541 17.1088 18.9645 17.1599 18.9645C17.211 18.9645 17.2615 18.9541 17.3084 18.934C17.3553 18.9139 17.3977 18.8844 17.4329 18.8475L20.4229 15.8835C20.4599 15.8483 20.4893 15.8059 20.5094 15.759C20.5295 15.712 20.5399 15.6615 20.5399 15.6105C20.5399 15.5594 20.5295 15.5089 20.5094 15.462C20.4893 15.415 20.4599 15.3727 20.4229 15.3375L17.4199 12.3475C17.3847 12.3105 17.3423 12.2811 17.2954 12.261C17.2485 12.2408 17.198 12.2305 17.1469 12.2305C17.0958 12.2305 17.0453 12.2408 16.9984 12.261C16.9515 12.2811 16.9091 12.3105 16.8739 12.3475L16.3279 12.8935C16.2909 12.9287 16.2615 12.971 16.2414 13.018C16.2213 13.0649 16.2109 13.1154 16.2109 13.1665C16.2109 13.2175 16.2213 13.268 16.2414 13.315C16.2615 13.3619 16.2909 13.4043 16.3279 13.4395L17.2639 14.3755C17.2995 14.4118 17.3237 14.4578 17.3334 14.5078C17.3432 14.5577 17.338 14.6094 17.3187 14.6565C17.2993 14.7035 17.2665 14.7439 17.2244 14.7725C17.1823 14.8011 17.1328 14.8168 17.0819 14.8175H13.9359C13.8305 14.8191 13.7294 14.8599 13.6525 14.932C13.5756 15.0042 13.5283 15.1024 13.5199 15.2075V15.9875C13.532 16.0914 13.5803 16.1877 13.6564 16.2596C13.7325 16.3314 13.8314 16.374 13.9359 16.3801H17.0949C17.1458 16.3808 17.1953 16.3964 17.2374 16.425C17.2795 16.4536 17.3123 16.494 17.3317 16.541C17.351 16.5881 17.3562 16.6398 17.3464 16.6898C17.3367 16.7397 17.3125 16.7857 17.2769 16.8221L16.3409 17.7581C16.3039 17.7933 16.2745 17.8356 16.2544 17.8826C16.2343 17.9295 16.2239 17.98 16.2239 18.0311C16.2239 18.0821 16.2343 18.1326 16.2544 18.1796C16.2745 18.2265 16.3039 18.2689 16.3409 18.3041L16.8869 18.8475Z" fill="#35094D"/>
</svg>
