<svg width="26" height="26" viewBox="0 0 26 26" fill="none" xmlns="http://www.w3.org/2000/svg">
<path d="M19.5 4.91895H5.98C5.40562 4.91895 4.94 5.38457 4.94 5.95895V8.03895C4.94 8.61332 5.40562 9.07894 5.98 9.07894H19.5C20.0744 9.07894 20.54 8.61332 20.54 8.03895V5.95895C20.54 5.38457 20.0744 4.91895 19.5 4.91895Z" fill="#35094D" fill-opacity="0.42"/>
<path d="M10.92 10.6387H5.98C5.40562 10.6387 4.94 11.1043 4.94 11.6787V13.7587C4.94 14.333 5.40562 14.7987 5.98 14.7987H10.92C11.4944 14.7987 11.96 14.333 11.96 13.7587V11.6787C11.96 11.1043 11.4944 10.6387 10.92 10.6387Z" fill="#35094D" fill-opacity="0.42"/>
<path d="M10.92 16.3594H5.98C5.40562 16.3594 4.94 16.825 4.94 17.3994V19.4794C4.94 20.0538 5.40562 20.5194 5.98 20.5194H10.92C11.4944 20.5194 11.96 20.0538 11.96 19.4794V17.3994C11.96 16.825 11.4944 16.3594 10.92 16.3594Z" fill="#35094D" fill-opacity="0.42"/>
<path d="M16.887 18.8475C16.9222 18.8844 16.9646 18.9139 17.0115 18.934C17.0584 18.9541 17.1089 18.9645 17.16 18.9645C17.2111 18.9645 17.2616 18.9541 17.3085 18.934C17.3554 18.9139 17.3978 18.8844 17.433 18.8475L20.423 15.8835C20.46 15.8483 20.4894 15.8059 20.5095 15.759C20.5296 15.712 20.54 15.6615 20.54 15.6105C20.54 15.5594 20.5296 15.5089 20.5095 15.462C20.4894 15.415 20.46 15.3727 20.423 15.3375L17.42 12.3475C17.3848 12.3105 17.3424 12.2811 17.2955 12.261C17.2486 12.2408 17.1981 12.2305 17.147 12.2305C17.0959 12.2305 17.0454 12.2408 16.9985 12.261C16.9516 12.2811 16.9092 12.3105 16.874 12.3475L16.328 12.8935C16.291 12.9287 16.2616 12.971 16.2415 13.018C16.2214 13.0649 16.211 13.1154 16.211 13.1665C16.211 13.2175 16.2214 13.268 16.2415 13.315C16.2616 13.3619 16.291 13.4043 16.328 13.4395L17.264 14.3755C17.2996 14.4118 17.3238 14.4578 17.3335 14.5078C17.3433 14.5577 17.3381 14.6094 17.3188 14.6565C17.2994 14.7035 17.2666 14.7439 17.2245 14.7725C17.1824 14.8011 17.1329 14.8168 17.082 14.8175H13.936C13.8306 14.8191 13.7295 14.8599 13.6526 14.932C13.5757 15.0042 13.5284 15.1024 13.52 15.2075V15.9875C13.5321 16.0914 13.5804 16.1877 13.6565 16.2596C13.7326 16.3314 13.8315 16.374 13.936 16.3801H17.095C17.1459 16.3808 17.1954 16.3964 17.2375 16.425C17.2796 16.4536 17.3124 16.494 17.3318 16.541C17.3511 16.5881 17.3563 16.6398 17.3465 16.6898C17.3368 16.7397 17.3126 16.7857 17.277 16.8221L16.341 17.7581C16.304 17.7933 16.2746 17.8356 16.2545 17.8826C16.2344 17.9295 16.224 17.98 16.224 18.0311C16.224 18.0821 16.2344 18.1326 16.2545 18.1796C16.2746 18.2265 16.304 18.2689 16.341 18.3041L16.887 18.8475Z" fill="#35094D" fill-opacity="0.42"/>
</svg>
