<svg width="39" height="36" viewBox="0 0 39 36" fill="none" xmlns="http://www.w3.org/2000/svg">
<path d="M4.88218 9.33753C4.88582 8.63105 5.43561 8.06114 6.11018 8.06461L10.3285 8.08563C11.1667 8.06769 11.909 7.51336 12.1985 6.68911C12.2061 6.66744 12.2148 6.64071 12.2463 6.5437L12.431 5.97344C12.544 5.6238 12.6425 5.31918 12.7795 5.04715C13.3207 3.97249 14.3157 3.22942 15.462 3.04377C15.7522 2.99677 16.0592 2.99855 16.4117 3.0006L21.9184 3.02894C22.2709 3.03052 22.5779 3.03189 22.8676 3.08188C24.0119 3.27932 24.9992 4.03259 25.5293 5.11277C25.6636 5.38618 25.7589 5.69181 25.8683 6.04259L26.0471 6.61472C26.0775 6.71205 26.0861 6.73887 26.0934 6.76062C26.3745 7.5878 27.2576 8.15118 28.0955 8.17775L32.167 8.1987C32.8415 8.20217 33.3854 8.77771 33.3818 9.48419C33.3782 10.1907 32.8283 10.7606 32.1539 10.7571L6.09701 10.623C5.42244 10.6196 4.87854 10.044 4.88218 9.33753Z" fill="#FF0000"/>
<path fill-rule="evenodd" clip-rule="evenodd" d="M15.0174 16.8209C15.6703 16.7609 16.2498 17.2256 16.3118 17.8586L17.064 25.5381C17.126 26.171 16.647 26.7328 15.9941 26.7927C15.3412 26.8527 14.7617 26.388 14.6997 25.755L13.9475 18.0755C13.8855 17.4426 14.3645 16.8808 15.0174 16.8209Z" fill="#FF0000"/>
<path fill-rule="evenodd" clip-rule="evenodd" d="M23.1703 16.8623C23.8224 16.9289 24.2956 17.4956 24.2271 18.1279L23.396 25.7992C23.3275 26.4315 22.7433 26.8902 22.0909 26.8236C21.4388 26.7569 20.9656 26.1902 21.0341 25.558L21.8652 17.8866C21.9337 17.2544 22.518 16.7956 23.1703 16.8623Z" fill="#FF0000"/>
<path opacity="0.5" d="M18.3746 32.1775L19.6551 32.1841C24.061 32.2068 26.264 32.2181 27.703 30.9336C29.142 29.649 29.2994 27.5306 29.6143 23.2935L30.068 17.1884C30.2389 14.8894 30.3243 13.74 29.6094 13.0077C28.8947 12.2753 27.6812 12.2691 25.2545 12.2566L12.9807 12.1934C10.5538 12.1809 9.3404 12.1747 8.6181 12.8997C7.89579 13.6246 7.96939 14.7748 8.11658 17.0754L8.50744 23.1849C8.77871 27.425 8.91434 29.545 10.34 30.8442C11.7657 32.1435 13.9687 32.1549 18.3746 32.1775Z" fill="#FF0000"/>
</svg>
