<svg width="107" height="110" viewBox="0 0 107 110" fill="none" xmlns="http://www.w3.org/2000/svg">
<g clip-path="url(#clip0_75_210)">
<path d="M80.25 87.0869C77.784 87.0869 75.7882 85.0352 75.7882 82.5C75.7882 79.9649 77.784 77.9131 80.25 77.9131C90.0828 77.9131 98.0869 69.6846 98.0869 59.5762C98.0869 49.9512 90.762 41.9268 81.4204 41.3037L78.7872 41.1426L77.6691 38.7041C73.2595 29.1113 63.7716 22.9131 53.5 22.9131C43.2285 22.9131 33.7406 29.1113 29.331 38.7041L28.2129 41.1426L25.5902 41.3145C16.2381 41.9375 8.92368 49.9619 8.92368 59.5869C8.92368 69.6953 16.9278 77.9238 26.7605 77.9238C29.2265 77.9238 31.2223 79.9756 31.2223 82.5107C31.2223 85.0459 29.2265 87.0977 26.7605 87.0977C12.0062 87.0977 0.010498 74.7656 0.010498 59.5977C0.010498 46.0518 9.67602 34.6221 22.445 32.4844C28.7145 21.0225 40.6371 13.75 53.5 13.75C66.363 13.75 78.2856 21.0225 84.5656 32.4629C97.3345 34.6006 107 46.041 107 59.5869C107 74.7442 95.0043 87.0869 80.25 87.0869Z" fill="#35094D"/>
<path d="M66.8749 84.7878C65.7359 84.7878 64.5969 84.3367 63.7192 83.4451L53.4999 72.9392L43.2805 83.4451C41.546 85.239 38.7142 85.239 36.9797 83.4451C35.2346 81.6511 35.2346 78.7507 36.9797 76.9675L50.3547 63.2175C52.0892 61.4236 54.921 61.4236 56.6555 63.2175L70.0305 76.9675C71.7756 78.7615 71.7756 81.6619 70.0305 83.4451C69.1528 84.3474 68.0138 84.7878 66.8749 84.7878Z" fill="#5F6379"/>
<path d="M53.4999 103.125C51.0339 103.125 49.0381 101.073 49.0381 98.5381V66.4619C49.0381 63.9268 51.0339 61.875 53.4999 61.875C55.9659 61.875 57.9617 63.9268 57.9617 66.4619V98.5488C57.9617 101.073 55.9659 103.125 53.4999 103.125Z" fill="#5F6379"/>
</g>
<defs>
<clipPath id="clip0_75_210">
<rect width="107" height="110" fill="white"/>
</clipPath>
</defs>
</svg>
