<svg width="85" height="82" viewBox="0 0 85 82" fill="none" xmlns="http://www.w3.org/2000/svg">
<path fill-rule="evenodd" clip-rule="evenodd" d="M42.5 81.6667C22.4653 81.6667 12.448 81.6667 6.224 75.6866C-5.0664e-07 69.707 0 60.0822 0 40.8333C0 21.5843 -5.0664e-07 11.9598 6.224 5.97992C12.448 -4.86771e-07 22.4653 0 42.5 0C62.5345 0 72.5522 -4.86771e-07 78.7759 5.97992C85 11.9598 85 21.5843 85 40.8333C85 60.0822 85 69.707 78.7759 75.6866C72.5522 81.6667 62.5345 81.6667 42.5 81.6667ZM42.5 23.4792C39.8595 23.4792 37.7188 25.5359 37.7188 28.0729C37.7188 29.7643 36.2916 31.1354 34.5313 31.1354C32.7709 31.1354 31.3438 29.7643 31.3438 28.0729C31.3438 22.1531 36.3388 17.3542 42.5 17.3542C48.6612 17.3542 53.6563 22.1531 53.6563 28.0729C53.6563 30.9755 52.4514 33.614 50.5028 35.5413C50.1105 35.9288 49.7365 36.2882 49.3795 36.6308C48.4623 37.5111 47.6587 38.2825 46.9536 39.153C46.0228 40.3021 45.6875 41.1469 45.6875 41.8542V44.9167C45.6875 46.608 44.2604 47.9792 42.5 47.9792C40.7397 47.9792 39.3125 46.608 39.3125 44.9167V41.8542C39.3125 39.1788 40.6088 37.013 41.9229 35.3911C42.8948 34.191 44.1167 33.0191 45.1087 32.0683C45.4079 31.7814 45.6858 31.5147 45.9298 31.2733C46.7696 30.443 47.2813 29.3185 47.2813 28.0729C47.2813 25.5359 45.1405 23.4792 42.5 23.4792ZM42.5 61.25C44.8473 61.25 46.75 59.4219 46.75 57.1667C46.75 54.9114 44.8473 53.0833 42.5 53.0833C40.1527 53.0833 38.25 54.9114 38.25 57.1667C38.25 59.4219 40.1527 61.25 42.5 61.25Z" fill="#1C274C"/>
</svg>
